<?xml version="1.0" encoding="UTF-8"?>
<!DOCTYPE svg PUBLIC "-//W3C//DTD SVG 1.1//EN" "http://www.w3.org/Graphics/SVG/1.1/DTD/svg11.dtd">
<!-- Creator: CorelDRAW 2019 (64-Bit) -->
<svg xmlns="http://www.w3.org/2000/svg" xml:space="preserve" width="84.6666mm" height="67.7332mm" version="1.1" style="shape-rendering:geometricPrecision; text-rendering:geometricPrecision; image-rendering:optimizeQuality; fill-rule:evenodd; clip-rule:evenodd"
viewBox="0 0 8466.66 6773.32"
 xmlns:xlink="http://www.w3.org/1999/xlink"
 xmlns:xodm="http://www.corel.com/coreldraw/odm/2003">
 <defs>
  <style type="text/css">
   <![CDATA[
    .fil0 {fill:none}
    .fil7 {fill:#333333}
    .fil3 {fill:#4D4D4D}
    .fil8 {fill:#4D4D4D}
    .fil2 {fill:gray}
    .fil1 {fill:#B3B3B3}
    .fil4 {fill:#E6E6E6}
    .fil6 {fill:#4D4D4D;fill-rule:nonzero}
    .fil5 {fill:#999999;fill-rule:nonzero}
   ]]>
  </style>
 </defs>
 <g id="Layer_x0020_1">
  <metadata id="CorelCorpID_0Corel-Layer"/>
  <rect class="fil0" y="-0.01" width="8466.66" height="6773.33"/>
  <g id="_2297213408432">
   <g>
    <polygon class="fil1" points="5192.1,2636.77 5315.81,2172.76 4570.34,1804.59 4690.98,2120.1 5003.41,2692.39 "/>
    <polygon class="fil2" points="5315.81,2172.76 5192.1,2636.77 5003.41,2692.39 5068.34,3187.39 5482.87,3261.62 5619.36,3178.89 5377.68,2593.46 "/>
    <polygon class="fil3" points="5482.87,3261.62 5068.34,3187.39 4796.12,3620.46 4796.12,3815.27 5328.19,3815.27 5575.66,3608.09 5573.13,3431.86 5619.36,3178.89 "/>
    <polygon class="fil4" points="5068.34,3187.39 5003.41,2692.39 4690.98,2120.1 4570.34,1804.59 4196.03,1680.85 4053.75,1940.71 3719.66,2107.76 3360.82,2287.17 2958.67,2627.44 2921.56,3091.44 2847.32,3382.22 2896.81,3815.27 4796.12,3815.27 4796.12,3620.46 "/>
   </g>
   <path class="fil1" d="M3963.61 2946.37c0,0 0,-23.56 0,-40.69 0,-17.13 0,-59.96 0,-74.96 0,-14.99 55.84,-51.4 55.84,-51.4l55.86 -6.43 20.96 47.12c0,0 21.78,64.24 25.74,83.52 3.96,19.28 5.93,32.13 5.93,32.13l-15.83 29.98c0,0 -7.93,6.42 -25.75,1.29 -17.81,9.91 -102.95,29.71 -102.95,29.71l-33.67 -11.88 13.87 -38.39z"/>
   <path class="fil1" d="M3577.04 2847.17l26.72 -29.71 46.54 -23.76c0,0 21.76,10.89 30.68,14.85 8.92,3.96 53.47,26.74 53.47,26.74l28.71 35.64c0,0 -9.91,32.67 -9.91,52.47 0,19.8 0,58.4 0,58.4l-34.64 12.87c0,0 -12.88,-5.93 -21.79,1 -8.91,6.92 -63.36,21.78 -63.36,21.78l-39.11 -8.41c0,0 -3.96,-28.22 -4.45,-32.18 -0.5,-3.96 -11.88,-70.78 -11.88,-70.78l-2.47 -38.12 1.49 -20.79z"/>
   <path class="fil1" d="M3390.9 3221.39c190.22,303.9 750.74,70.08 1004.29,-118.96 -185.14,232.46 -868.12,586.52 -1004.29,118.96z"/>
   <g>
    <path class="fil5" d="M1922.83 4185.69l0 -154.79 -629.86 0 0 833.47 192.88 0 0 -303.62 385.78 0 0 -154.79 -385.78 0 0 -220.27 436.98 0zm719.17 678.68l202.41 0 -372.68 -833.47 -190.51 0 -371.49 833.47 197.66 0 73.82 -178.6 386.96 0 73.83 178.6zm-398.88 -325.05l132.17 -319.1 132.16 319.1 -264.33 0zm819.18 325.05l192.89 0 0 -676.3 266.71 0 0 -157.17 -726.31 0 0 157.17 266.71 0 0 676.3z"/>
    <path class="fil6" d="M4363.7 4864.37l-186.93 -267.9c108.35,-46.44 171.45,-138.12 171.45,-263.14 0,-186.93 -139.31,-302.43 -361.96,-302.43l-360.77 0 0 833.47 192.88 0 0 -232.18 167.89 0 9.52 0 160.74 232.18 207.18 0zm-210.75 -531.04c0,90.49 -59.53,145.26 -177.41,145.26l-157.17 0 0 -290.52 157.17 0c117.88,0 177.41,53.58 177.41,145.26zm751.31 545.33c261.95,0 456.03,-182.17 456.03,-431.02 0,-248.85 -194.08,-431.03 -456.03,-431.03 -263.14,0 -456.02,183.37 -456.02,431.03 0,247.65 192.88,431.02 456.02,431.02zm0 -164.31c-148.83,0 -260.75,-108.36 -260.75,-266.71 0,-158.36 111.92,-266.71 260.75,-266.71 148.84,0 260.76,108.35 260.76,266.71 0,158.35 -111.92,266.71 -260.76,266.71zm1000.17 164.31c145.26,0 265.52,-52.39 344.1,-148.84l-123.83 -114.3c-55.96,65.49 -126.21,98.83 -209.55,98.83 -155.98,0 -266.71,-109.55 -266.71,-266.71 0,-157.17 110.73,-266.71 266.71,-266.71 83.34,0 153.59,33.33 209.55,97.63l123.83 -114.3c-78.58,-95.26 -198.84,-147.65 -342.91,-147.65 -259.57,0 -452.45,179.79 -452.45,431.03 0,251.23 192.88,431.02 451.26,431.02zm1044.22 -14.29l225.03 0 -365.53 -461.98 345.29 -371.49 -214.32 0 -369.11 389.35 0 -389.35 -191.69 0 0 833.47 191.69 0 0 -210.75 111.93 -116.68 266.71 327.43z"/>
   </g>
   <polygon class="fil7" points="1292.97,5053.64 7173.69,5053.64 7173.69,5092.47 1292.97,5092.47 "/>
   <polygon class="fil8" points="1292.97,3776.44 7173.69,3776.44 7173.69,3815.27 1292.97,3815.27 "/>
  </g>
 </g>
</svg>
